<svg xmlns="http://www.w3.org/2000/svg" viewBox="0 0 240 260" fill="none">
  <defs>
    <linearGradient id="bodyGrad" x1="120" y1="40" x2="120" y2="210" gradientUnits="userSpaceOnUse">
      <stop offset="0%" stop-color="#FF7700" />
      <stop offset="60%" stop-color="#FF5500" />
      <stop offset="100%" stop-color="#D93B00" />
    </linearGradient>
    <linearGradient id="faceGrad" x1="120" y1="75" x2="120" y2="180" gradientUnits="userSpaceOnUse">
      <stop offset="0%" stop-color="#FFAA33" />
      <stop offset="100%" stop-color="#FF7700" />
    </linearGradient>
    <linearGradient id="beakGrad" x1="120" y1="100" x2="120" y2="155" gradientUnits="userSpaceOnUse">
      <stop offset="0%" stop-color="#FFF7D6" />
      <stop offset="100%" stop-color="#FFE082" />
    </linearGradient>
    <linearGradient id="wingGrad" x1="0" y1="0" x2="0" y2="70" gradientUnits="userSpaceOnUse">
      <stop offset="0%" stop-color="#E54D00" />
      <stop offset="100%" stop-color="#B33000" />
    </linearGradient>
  </defs>
  <!-- FEET -->
  <g>
    <ellipse cx="90" cy="224" rx="22" ry="7" fill="#FFE082" stroke="#D9A000" stroke-width="2" />
    <ellipse cx="150" cy="224" rx="22" ry="7" fill="#FFE082" stroke="#D9A000" stroke-width="2" />
  </g>
  <!-- CROWN FEATHERS -->
  <g>
    <path d="M120 60 C95 40, 85 15, 110 8 C125 25, 125 40, 120 60 Z" fill="#FF4400" />
    <path d="M120 60 C115 35, 115 8, 140 2 C145 22, 138 42, 120 60 Z" fill="#FF6600" />
    <path d="M120 60 C132 35, 145 15, 162 18 C155 35, 142 48, 120 60 Z" fill="#FF8800" />
  </g>
  <!-- BODY -->
  <rect x="50" y="55" width="140" height="155" rx="65" fill="url(#bodyGrad)" stroke="#B33000" stroke-width="4" />
  <path d="M75 68 C95 58, 145 58, 165 68 C145 62, 95 62, 75 68 Z" fill="#FFFFFF" opacity="0.4" />
  <!-- FACE MASK -->
  <path d="M65 125 C65 85, 85 78, 120 78 C155 78, 175 85, 175 125 C175 165, 155 190, 120 190 C85 190, 65 165, 65 125 Z" fill="url(#faceGrad)" />
  <!-- LEFT WING -->
  <path d="M52 118 C30 130, 22 165, 46 190 C58 172, 58 142, 52 118 Z" fill="url(#wingGrad)" stroke="#992600" stroke-width="3" />
  <!-- RIGHT WING -->
  <path d="M185 110 C215 90, 225 65, 205 55 C190 75, 185 95, 185 110 Z" fill="url(#wingGrad)" stroke="#992600" stroke-width="3" />
  <!-- EYES -->
  <circle cx="85" cy="115" r="18" fill="#FFFFFF" stroke="#D93B00" stroke-width="2.5" />
  <circle cx="85" cy="115" r="9" fill="#131F24" />
  <circle cx="82" cy="112" r="3.5" fill="#FFFFFF" />
  <circle cx="155" cy="115" r="18" fill="#FFFFFF" stroke="#D93B00" stroke-width="2.5" />
  <circle cx="155" cy="115" r="9" fill="#131F24" />
  <circle cx="152" cy="112" r="3.5" fill="#FFFFFF" />
  <!-- BEAK -->
  <path d="M102 108 C102 108, 120 102, 138 108 C142 132, 120 156, 120 156 C120 156, 98 132, 102 108 Z" fill="url(#beakGrad)" stroke="#D9A000" stroke-width="3" />
</svg>