<svg xmlns="http://www.w3.org/2000/svg" viewBox="0 0 500 500" width="500" height="500">
  <!-- FEET SHADOWS -->
  <ellipse cx="190" cy="428" rx="28" ry="9" fill="#0D161B" opacity="0.4" />
  <ellipse cx="190" cy="424" rx="22" ry="7" fill="#FFE082" stroke="#D9A000" stroke-width="2" />

  <ellipse cx="310" cy="428" rx="28" ry="9" fill="#0D161B" opacity="0.4" />
  <ellipse cx="310" cy="424" rx="22" ry="7" fill="#FFE082" stroke="#D9A000" stroke-width="2" />

  <!-- CROWN FEATHERS -->
  <path d="M250 160 C200 120, 180 70, 230 56 C260 90, 260 120, 250 160 Z" fill="#FF4400" />
  <path d="M250 160 C240 110, 240 56, 290 44 C300 84, 286 124, 250 160 Z" fill="#FF6600" />
  <path d="M250 160 C274 110, 300 70, 334 76 C320 110, 294 136, 250 160 Z" fill="#FF8800" />

  <!-- MAIN BODY -->
  <rect x="110" y="150" width="280" height="270" rx="130" fill="#FF6600" stroke="#B33000" stroke-width="6" />
  <path d="M160 176 C200 156, 300 156, 340 176 C300 164, 200 164, 160 176 Z" fill="#FFFFFF" opacity="0.4" />

  <!-- FACE MASK -->
  <path d="M140 270 C140 190, 180 176, 250 176 C320 176, 360 190, 360 270 C360 350, 320 400, 250 400 C180 400, 140 350, 140 270 Z" fill="#FFAA33" />

  <!-- LEFT WING -->
  <path d="M114 256 C70 280, 54 350, 102 400 C126 364, 126 304, 114 256 Z" fill="#E54D00" stroke="#992600" stroke-width="4" />
  <path d="M106 276 C78 300, 74 340, 98 376 C106 350, 106 310, 106 276 Z" fill="#FF6600" opacity="0.6" />

  <!-- RIGHT WING -->
  <path d="M386 256 C430 280, 446 350, 398 400 C374 364, 374 304, 386 256 Z" fill="#E54D00" stroke="#992600" stroke-width="4" />
  <path d="M394 276 C422 300, 426 340, 402 376 C394 350, 394 310, 394 276 Z" fill="#FF6600" opacity="0.6" />

  <!-- BEAK -->
  <path d="M214 236 C214 236, 250 224, 286 236 C294 284, 250 332, 250 332 C250 332, 206 284, 214 236 Z" fill="#FFE082" stroke="#D9A000" stroke-width="5" />
  <path d="M230 244 C240 240, 260 240, 270 244 C260 270, 250 290, 250 290 C246 276, 238 260, 230 244 Z" fill="#FFFFFF" opacity="0.45" />

  <!-- EYES -->
  <circle cx="194" cy="228" r="32" fill="#FFFFFF" stroke="#0D161B" stroke-width="5" />
  <circle cx="194" cy="228" r="20" fill="#0D161B" />
  <circle cx="186" cy="220" r="8" fill="#FFFFFF" />
  <circle cx="200" cy="236" r="3" fill="#FFFFFF" />

  <circle cx="306" cy="228" r="32" fill="#FFFFFF" stroke="#0D161B" stroke-width="5" />
  <circle cx="306" cy="228" r="20" fill="#0D161B" />
  <circle cx="298" cy="220" r="8" fill="#FFFFFF" />
  <circle cx="312" cy="236" r="3" fill="#FFFFFF" />
</svg>
